PathFileType	4	(X/Y/Z)	/Users/niels/Desktop/University/Third Semester/Perception and Action/Exam/Gymnastics Motion Tracking/Code for Gym Tracking/Analyzed Data/Webcam_Backflip/idid 15_1_trajectory_Sports2D/idid 15_1_trajectory_Sports2D_px_person00.trc
DataRate	CameraRate	NumFrames	NumMarkers	Units	OrigDataRate	OrigDataStartFrame	OrigNumFrames
29.702970297029704	29.702970297029704	8	22	m	29.702970297029704	37	101
Frame#	Time	Hip			RHip			RKnee			RAnkle			RBigToe			RSmallToe			RHeel			LHip			LKnee			LAnkle			LBigToe			LSmallToe			LHeel			Neck			Head			Nose			RShoulder			RElbow			RWrist			LShoulder			LElbow			LWrist		
		X1	Y1	Z1	X2	Y2	Z2	X3	Y3	Z3	X4	Y4	Z4	X5	Y5	Z5	X6	Y6	Z6	X7	Y7	Z7	X8	Y8	Z8	X9	Y9	Z9	X10	Y10	Z10	X11	Y11	Z11	X12	Y12	Z12	X13	Y13	Z13	X14	Y14	Z14	X15	Y15	Z15	X16	Y16	Z16	X17	Y17	Z17	X18	Y18	Z18	X19	Y19	Z19	X20	Y20	Z20	X21	Y21	Z21	X22	Y22	Z22
37	1.2456666666666665	0.9246725355488299	-0.42231127229453147	0.0	0.9041705229023849	-0.4293877587880749	0.0	0.8902932846299203	-0.5796629354242622	0.0	0.7847386049032355	-0.6370565099695861	0.0	0.7924335699986482	-0.6971564006259106	0.0	0.7806109225847824	-0.6885448240150344	0.0	0.7642298640517446	-0.6323969978654846	0.0	0.9356998360922232	-0.4297611112292381	0.0	0.8987309709717966	-0.5780547754568612	0.0	0.8018290720278016	-0.6302558258058293	0.0	0.8360621662693922	-0.6904139090894548	0.0	0.8393708212870435	-0.674769519755736	0.0	0.8030462366469648	-0.623129821040378	0.0	1.0282947542729446	-0.5829126933818752	0.0	1.0937947446013447	-0.6564880578599231	0.0	1.0461450483861157	-0.6489514360308267	0.0	1.0012409120305135	-0.577588547201667	0.0	0.9864571108021049	-0.6791096475569194	0.0	1.008022421720002	-0.7759285515817799	0.0	1.0457928927224227	-0.5666021222049347	0.0	1.025147216436265	-0.6669937497161097	0.0	1.0329757711081777	-0.7591453489132519	0.0
38	1.2793333333333332	0.9437006850651097	-0.410742033307966	0.0	0.9233381677785252	-0.4174807521458856	0.0	0.8897071873905379	-0.5654403773680863	0.0	0.7814500109766868	-0.5822107590307012	0.0	0.771969254854247	-0.6402581415740976	0.0	0.763249838409967	-0.6293389939068759	0.0	0.7627040427149964	-0.572005670818392	0.0	0.9505379217363874	-0.4183114624536183	0.0	0.8943519586110418	-0.5628329765122131	0.0	0.7898278196326667	-0.5778708508967687	0.0	0.7930418749624024	-0.6378598946966595	0.0	0.7959978003223873	-0.6250146487481557	0.0	0.7850444905957847	-0.5644946546993558	0.0	1.0313024103700847	-0.5870480103964756	0.0	1.0921138076348322	-0.6654734238834252	0.0	1.0457531239605935	-0.6531427054662726	0.0	1.0050563574920965	-0.5820190130996525	0.0	0.9891317354458411	-0.67877536229244	0.0	1.0091386670364741	-0.7754207551412551	0.0	1.0503764724975921	-0.5703305879427407	0.0	1.0275822596473962	-0.6668499311797178	0.0	1.033692308764626	-0.7584433156022958	0.0
39	1.313	0.9647421330013289	-0.4022934944484024	0.0	0.9457179641279084	-0.40781443281582846	0.0	0.892855374196837	-0.5504297470536058	0.0	0.7889937625114369	-0.5232525015430348	0.0	0.763949477206542	-0.5742048563636521	0.0	0.7591894680659681	-0.5621473021060676	0.0	0.7730640930693294	-0.5081202282822149	0.0	0.9676713984340821	-0.4096294856564658	0.0	0.8964392070527603	-0.545964180408712	0.0	0.7932779167601716	-0.5219255292737249	0.0	0.7734488733944247	-0.5768719927459435	0.0	0.7732856064876992	-0.5684715763738628	0.0	0.7854561111942155	-0.5022023341923335	0.0	1.037885980006804	-0.5904602792145968	0.0	1.0949505703492008	-0.6706725314279622	0.0	1.0505068028124658	-0.6562728341070302	0.0	1.0124503655948631	-0.5856198230603907	0.0	0.9953671578117064	-0.6785382143161766	0.0	1.014096956765238	-0.7742443346635266	0.0	1.0571749421152432	-0.5737295132103448	0.0	1.0334626170496137	-0.6664309080842095	0.0	1.038039493869001	-0.7572577495848885	0.0
40	1.3466666666666667	0.9834816418314192	-0.3958536565548568	0.0	0.966505011683748	-0.3994858841176962	0.0	0.8946359007116784	-0.5333160809867049	0.0	0.8042661719337864	-0.4654852002172085	0.0	0.7678221565322141	-0.5054987988565917	0.0	0.7675030823795933	-0.4936745815391148	0.0	0.7921463316878256	-0.4466203913382038	0.0	0.9831369895237444	-0.4023051454931206	0.0	0.8993637680029679	-0.526690462987752	0.0	0.807736480442713	-0.46701798824251534	0.0	0.7739336779748	-0.512818159565338	0.0	0.7684377437327806	-0.5094243179743076	0.0	0.7997391581706362	-0.4410502547197838	0.0	1.0442581778655804	-0.5933374063474826	0.0	1.0987497718179444	-0.673296513560925	0.0	1.0571765074580421	-0.659395984015165	0.0	1.0196652024221629	-0.5884472452256537	0.0	1.0015164158775525	-0.6791487541239191	0.0	1.0194042043388087	-0.7731010541970015	0.0	1.062688005712118	-0.5765009280805486	0.0	1.0392072349483952	-0.6659980634067963	0.0	1.042564565444109	-0.7563284194456658	0.0
41	1.3803333333333332	0.9983635762071466	-0.3907291094271084	0.0	0.9834969034999229	-0.39216309436362023	0.0	0.8931795105925083	-0.5131892017942685	0.0	0.8249195261952894	-0.4129499391376709	0.0	0.7820435109206496	-0.4402178884752316	0.0	0.7862569606360741	-0.4296495321273207	0.0	0.8173482697405303	-0.39187598110998406	0.0	0.9957936586493701	-0.3955318678566911	0.0	0.9009984845275241	-0.5046768446032224	0.0	0.829324554005212	-0.4167779626861304	0.0	0.7884750071868148	-0.45045315519946133	0.0	0.7779061782448846	-0.4513370289625142	0.0	0.8233520906058024	-0.38525503732582195	0.0	1.048640721091418	-0.5957822289099997	0.0	1.1013278101935702	-0.6748273756007882	0.0	1.063786004048017	-0.6626657936793746	0.0	1.024852386116839	-0.5905830584548969	0.0	1.006056852411919	-0.6809433862308928	0.0	1.0236688499727435	-0.7721748026582851	0.0	1.0657053683422557	-0.5785971565237066	0.0	1.043361195638442	-0.6656943713100679	0.0	1.0459191487423558	-0.7557901006924573	0.0
42	1.414	1.0094027810330275	-0.38659866916527696	0.0	0.9961956359406994	-0.3860480433231154	0.0	0.888996553347105	-0.489786913065946	0.0	0.8486992496273092	-0.36774851316298346	0.0	0.803523939179115	-0.38243632250729015	0.0	0.8120137584342054	-0.3737122968569049	0.0	0.8459198589564678	-0.34601676036018	0.0	1.0059325401119876	-0.38910277711512253	0.0	0.901891592405059	-0.48009542199662064	0.0	0.854325864039589	-0.3732448148517694	0.0	0.810170372842001	-0.39254546682551306	0.0	0.7975423035742116	-0.3961548829231826	0.0	0.8519065528792518	-0.3375531388686695	0.0	1.0507137520298664	-0.5980789846016303	0.0	1.1017159557461962	-0.6768293658243085	0.0	1.0690362301578553	-0.6658077228222543	0.0	1.0273983648297382	-0.5922700933672594	0.0	1.0087178679955782	-0.6837524231858965	0.0	1.0266418960819572	-0.7714713709077654	0.0	1.0664360986914794	-0.5804036602568681	0.0	1.0457806531833234	-0.6657031747919706	0.0	1.0480459617402333	-0.7554923657311485	0.0
43	1.4476666666666667	1.0173387616830478	-0.3832807009329571	0.0	1.0050823250663183	-0.38150953302527596	0.0	0.8838818216141483	-0.4634271621540094	0.0	0.8733605576491783	-0.33006193466553446	0.0	0.8286679337605151	-0.333515050883982	0.0	0.8407212246027864	-0.32694330847020425	0.0	0.8750689623709674	-0.3089315941417951	0.0	1.0143714580681027	-0.38320125803667393	0.0	0.9038772946647036	-0.45375686702377516	0.0	0.8795533403313917	-0.33665154564139443	0.0	0.8338226534648087	-0.3402059171591728	0.0	0.8231631148868885	-0.344659217318465	0.0	0.8817074550391111	-0.29864793749459084	0.0	1.0509791996678308	-0.6006326810164277	0.0	1.0999898378311541	-0.6802811783485565	0.0	1.0722024830626706	-0.6686888294883054	0.0	1.027406023292674	-0.5938023660524079	0.0	1.0098528992708675	-0.6869350465355807	0.0	1.0284841683001473	-0.7709952123921158	0.0	1.0657682292590458	-0.5824984634893148	0.0	1.0469982443556798	-0.666148477538112	0.0	1.0494119454484647	-0.7553059592598157	0.0
44	1.4813333333333332	1.0230523193936165	-0.38063822751298615	0.0	1.0110356904088345	-0.37873069168206625	0.0	0.8798831815263903	-0.43485926825486665	0.0	0.896908991412563	-0.2986327096369313	0.0	0.8542773996351335	-0.29257692855783746	0.0	0.8684911080974838	-0.2882405413070949	0.0	0.9024203586612515	-0.27889068302173026	0.0	1.0219009379939483	-0.37823086048671256	0.0	0.908569700951441	-0.42708487399299666	0.0	0.902980066246045	-0.30571576123800376	0.0	0.8570731430974392	-0.293780653069894	0.0	0.851251954339935	-0.29713936204504876	0.0	0.9101571906839734	-0.2673740691422766	0.0	1.0502020946713564	-0.6036398707548156	0.0	1.0971477269769034	-0.6848078406180538	0.0	1.073218679527543	-0.6714042722859371	0.0	1.0253593851362912	-0.5954606998919206	0.0	1.010040092111429	-0.6898095196290184	0.0	1.0294813363415172	-0.7708183385656743	0.0	1.0647234688461311	-0.5852111590630622	0.0	1.0477403341284162	-0.6669400788240958	0.0	1.0504319773121942	-0.7552124148514411	0.0
